# xmcd
#
# Track frame offsets:
# 150
# 13476
# 33712
# 50137
# 68021
# 85586
# 100647
# 119211
# 140843
# 153954
# 175248
#
# Disc length: 2523 seconds
#
#
# Revision: 0
# Processed by: cddbd v1.4PL0 Copyright (c) Steve Scherf et al.
# Submitted via: FreeRIP 2.00 
#
DISCID=9c09d90b
DTITLE=Dwight Yoakam - This Time
DYEAR=1993
DGENRE=Country
TTITLE0=Pocket Of A Clown
TTITLE1=Thousand Miles From Nowhere
TTITLE2=Home For Sale
TTITLE3=This Time
TTITLE4=Two Doors Down
TTITLE5=Ain't That Lonely Yet
TTITLE6=King Of Fools
TTITLE7=Fast As You
TTITLE8=Try Not To Look So Pretty
TTITLE9=Wild Ride
TTITLE10=Lonesome Roads
EXTD=Warner Brothers
EXTT0=
EXTT1=
EXTT2=
EXTT3=
EXTT4=
EXTT5=
EXTT6=
EXTT7=
EXTT8=
EXTT9=
EXTT10=
PLAYORDER=
